<svg width="40" height="40" viewBox="0 0 40 40" fill="none" xmlns="http://www.w3.org/2000/svg">
<g filter="url(#filter0_b_787_45586)">
<circle cx="20" cy="20" r="20" fill="white" fill-opacity="0.3"/>
</g>
<g clip-path="url(#clip0_787_45586)">
<path d="M25.2496 14.7583C24.9246 14.4333 24.3996 14.4333 24.0746 14.7583L19.9996 18.825L15.9246 14.75C15.5996 14.425 15.0746 14.425 14.7496 14.75C14.4246 15.075 14.4246 15.6 14.7496 15.925L18.8246 20L14.7496 24.075C14.4246 24.4 14.4246 24.925 14.7496 25.25C15.0746 25.575 15.5996 25.575 15.9246 25.25L19.9996 21.175L24.0746 25.25C24.3996 25.575 24.9246 25.575 25.2496 25.25C25.5746 24.925 25.5746 24.4 25.2496 24.075L21.1746 20L25.2496 15.925C25.5663 15.6083 25.5663 15.075 25.2496 14.7583Z" fill="black"/>
</g>
<defs>
<filter id="filter0_b_787_45586" x="-4" y="-4" width="48" height="48" filterUnits="userSpaceOnUse" color-interpolation-filters="sRGB">
<feFlood flood-opacity="0" result="BackgroundImageFix"/>
<feGaussianBlur in="BackgroundImageFix" stdDeviation="2"/>
<feComposite in2="SourceAlpha" operator="in" result="effect1_backgroundBlur_787_45586"/>
<feBlend mode="normal" in="SourceGraphic" in2="effect1_backgroundBlur_787_45586" result="shape"/>
</filter>
<clipPath id="clip0_787_45586">
<rect width="20" height="20" fill="white" transform="translate(10 10)"/>
</clipPath>
</defs>
</svg>
