<svg width="20" height="20" viewBox="0 0 20 20" fill="none" xmlns="http://www.w3.org/2000/svg">
<g clip-path="url(#clip0_787_44422)">
<path d="M9.99967 5.41667C12.2997 5.41667 14.1663 7.28334 14.1663 9.58334C14.1663 10.0083 14.083 10.4167 13.9663 10.8L16.5163 13.35C17.6747 12.325 18.5913 11.0417 19.1663 9.575C17.7247 5.925 14.1663 3.33334 9.99967 3.33334C8.94134 3.33334 7.92467 3.5 6.96634 3.80834L8.77467 5.61667C9.16634 5.5 9.57467 5.41667 9.99967 5.41667ZM2.25801 2.63334C1.93301 2.95834 1.93301 3.48334 2.25801 3.80834L3.89967 5.45C2.54967 6.525 1.47467 7.94167 0.833008 9.58334C2.27467 13.2417 5.83301 15.8333 9.99967 15.8333C11.2663 15.8333 12.4747 15.5833 13.5913 15.15L15.858 17.4167C16.183 17.7417 16.708 17.7417 17.033 17.4167C17.358 17.0917 17.358 16.5667 17.033 16.2417L3.44134 2.63334C3.11634 2.30834 2.58301 2.30834 2.25801 2.63334ZM9.99967 13.75C7.69967 13.75 5.83301 11.8833 5.83301 9.58334C5.83301 8.94167 5.98301 8.33334 6.24134 7.8L7.54967 9.10834C7.52468 9.25834 7.49967 9.41667 7.49967 9.58334C7.49967 10.9667 8.61634 12.0833 9.99967 12.0833C10.1663 12.0833 10.3163 12.0583 10.4747 12.025L11.783 13.3333C11.2413 13.6 10.6413 13.75 9.99967 13.75ZM12.4747 9.30834C12.3497 8.14167 11.433 7.23334 10.2747 7.10834L12.4747 9.30834Z" fill="#CCCCCC"/>
</g>
<defs>
<clipPath id="clip0_787_44422">
<rect width="20" height="20" fill="white"/>
</clipPath>
</defs>
</svg>
