<svg width="20" height="20" viewBox="0 0 20 20" fill="none" xmlns="http://www.w3.org/2000/svg">
<g clip-path="url(#clip0_787_44378)">
<path d="M9.99967 3.33331C5.83301 3.33331 2.27467 5.92498 0.833008 9.58331C2.27467 13.2416 5.83301 15.8333 9.99967 15.8333C14.1663 15.8333 17.7247 13.2416 19.1663 9.58331C17.7247 5.92498 14.1663 3.33331 9.99967 3.33331ZM9.99967 13.75C7.69967 13.75 5.83301 11.8833 5.83301 9.58331C5.83301 7.28331 7.69967 5.41665 9.99967 5.41665C12.2997 5.41665 14.1663 7.28331 14.1663 9.58331C14.1663 11.8833 12.2997 13.75 9.99967 13.75ZM9.99967 7.08331C8.61634 7.08331 7.49967 8.19998 7.49967 9.58331C7.49967 10.9666 8.61634 12.0833 9.99967 12.0833C11.383 12.0833 12.4997 10.9666 12.4997 9.58331C12.4997 8.19998 11.383 7.08331 9.99967 7.08331Z" fill="#999999"/>
</g>
<defs>
<clipPath id="clip0_787_44378">
<rect width="20" height="20" fill="white"/>
</clipPath>
</defs>
</svg>
