<svg width="20" height="20" viewBox="0 0 20 20" fill="none" xmlns="http://www.w3.org/2000/svg">
<g clip-path="url(#clip0_787_45010)">
<path d="M10 12.5C11.3807 12.5 12.5 11.3807 12.5 10C12.5 8.61929 11.3807 7.5 10 7.5C8.61929 7.5 7.5 8.61929 7.5 10C7.5 11.3807 8.61929 12.5 10 12.5Z" fill="#D01743"/>
<path d="M16.667 3.33335H14.0253L12.992 2.20835C12.6837 1.86669 12.2337 1.66669 11.767 1.66669H8.23366C7.76699 1.66669 7.31699 1.86669 7.00033 2.20835L5.97533 3.33335H3.33366C2.41699 3.33335 1.66699 4.08335 1.66699 5.00002V15C1.66699 15.9167 2.41699 16.6667 3.33366 16.6667H16.667C17.5837 16.6667 18.3337 15.9167 18.3337 15V5.00002C18.3337 4.08335 17.5837 3.33335 16.667 3.33335ZM10.0003 14.1667C7.70033 14.1667 5.83366 12.3 5.83366 10C5.83366 7.70002 7.70033 5.83335 10.0003 5.83335C12.3003 5.83335 14.167 7.70002 14.167 10C14.167 12.3 12.3003 14.1667 10.0003 14.1667Z" fill="#D01743"/>
</g>
<defs>
<clipPath id="clip0_787_45010">
<rect width="20" height="20" fill="white"/>
</clipPath>
</defs>
</svg>
