<svg width="16" height="16" viewBox="0 0 16 16" fill="none" xmlns="http://www.w3.org/2000/svg">
<g clip-path="url(#clip0_787_46387)">
<path d="M7.99967 1.33331C4.31967 1.33331 1.33301 4.31998 1.33301 7.99998C1.33301 11.68 4.31967 14.6666 7.99967 14.6666C11.6797 14.6666 14.6663 11.68 14.6663 7.99998C14.6663 4.31998 11.6797 1.33331 7.99967 1.33331ZM8.66634 12.6666H7.33301V11.3333H8.66634V12.6666ZM10.0463 7.49998L9.44634 8.11331C9.11301 8.45331 8.87301 8.75998 8.75301 9.23998C8.69967 9.45331 8.66634 9.69331 8.66634 9.99998H7.33301V9.66665C7.33301 9.35998 7.38634 9.06665 7.47967 8.79331C7.61301 8.40665 7.83301 8.05998 8.11301 7.77998L8.93967 6.93998C9.24634 6.64665 9.39301 6.20665 9.30634 5.73998C9.21967 5.25998 8.84634 4.85331 8.37967 4.71998C7.63967 4.51331 6.95301 4.93331 6.73301 5.56665C6.65301 5.81331 6.44634 5.99998 6.18634 5.99998H5.98634C5.59967 5.99998 5.33301 5.62665 5.43967 5.25331C5.72634 4.27331 6.55967 3.52665 7.59301 3.36665C8.60634 3.20665 9.57301 3.73331 10.173 4.56665C10.9597 5.65331 10.7263 6.81998 10.0463 7.49998Z" fill="#CCCCCC"/>
</g>
<defs>
<clipPath id="clip0_787_46387">
<rect width="16" height="16" fill="white"/>
</clipPath>
</defs>
</svg>
